Coordinates
version=1
nRows=49
nColumns=12
inDegrees=yes

Units are S.I. units (second, meters, Newtons, ...)
Angles are in degrees

endheader
time	SC_y	SC_z	SC_x	AC_y	AC_z	AC_x	GH_y	GH_z	GH_yy	EL_x	PS_y
       0.0              -25.26           28.2          47.89          44.89         -15.91         -8.088         -97.37           86.8         -72.87          98.82          41.68
   0.04848              -25.26           28.2          47.89          44.89         -15.91         -8.085         -97.37          86.79         -72.84          98.82          41.68
   0.09696              -25.26           28.2           47.9          44.89         -15.91         -8.082         -97.37          86.77          -72.8          98.81          41.68
    0.1454              -25.26           28.2          47.91          44.89         -15.91         -8.078         -97.36          86.76         -72.76          98.81          41.69
    0.1939              -25.27           28.2          47.91           44.9         -15.91         -8.074         -97.36          86.74         -72.72           98.8          41.69
    0.2424              -25.27           28.2          47.92           44.9          -15.9          -8.07         -97.36          86.73         -72.67           98.8           41.7
    0.2909              -25.27          28.19          47.92           44.9          -15.9         -8.066         -97.36          86.71         -72.62           98.8           41.7
    0.3394              -25.27          28.19          47.93           44.9          -15.9         -8.061         -97.36          86.69         -72.57          98.79          41.71
    0.3878              -25.28          28.19          47.94           44.9          -15.9         -8.056         -97.36          86.67         -72.52          98.79          41.71
    0.4363              -25.28          28.19          47.95           44.9         -15.89         -8.051         -97.36          86.65         -72.46          98.78          41.72
    0.4848              -25.28          28.19          47.95           44.9         -15.89         -8.045         -97.35          86.62         -72.39          98.78          41.73
    0.5333              -25.29          28.19          47.96           44.9         -15.89         -8.039         -97.35           86.6         -72.33          98.77          41.74
    0.5818              -25.29          28.18          47.97           44.9         -15.88         -8.032         -97.35          86.57         -72.25          98.76          41.74
    0.6302               -25.3          28.18          47.98           44.9         -15.88         -8.025         -97.35          86.54         -72.17          98.76          41.75
    0.6787               -25.3          28.18           48.0           44.9         -15.88         -8.017         -97.34          86.51         -72.09          98.75          41.76
    0.7272              -25.31          28.18          48.01          44.91         -15.87         -8.009         -97.34          86.47         -71.99          98.74          41.77
    0.7757              -25.31          28.17          48.02          44.91         -15.87         -7.999         -97.34          86.43         -71.89          98.73          41.78
    0.8242              -25.32          28.17          48.04          44.91         -15.86         -7.989         -97.33          86.39         -71.78          98.72          41.79
    0.8727              -25.32          28.17          48.05          44.91         -15.86         -7.978         -97.33          86.34         -71.66          98.71          41.81
    0.9211              -25.33          28.16          48.07          44.91         -15.85         -7.967         -97.33          86.29         -71.53           98.7          41.82
    0.9696              -25.34          28.16          48.09          44.91         -15.84         -7.953         -97.32          86.24         -71.38          98.68          41.84
     1.018              -25.35          28.16          48.11          44.92         -15.84         -7.939         -97.32          86.18         -71.22          98.67          41.86
     1.067              -25.36          28.15          48.14          44.92         -15.83         -7.923         -97.31          86.11         -71.05          98.65          41.88
     1.115              -25.37          28.14          48.16          44.92         -15.82         -7.905         -97.31          86.04         -70.85          98.64           41.9
     1.164              -25.38          28.14          48.19          44.92         -15.81         -7.886          -97.3          85.96         -70.64          98.62          41.92
     1.212              -25.39          28.13          48.22          44.93          -15.8         -7.864         -97.29          85.86         -70.39           98.6          41.95
      1.26              -25.41          28.12          48.26          44.93         -15.78         -7.839         -97.28          85.76         -70.12          98.57          41.98
     1.309              -25.42          28.12           48.3          44.94         -15.77         -7.811         -97.28          85.65         -69.82          98.54          42.01
     1.357              -25.44          28.11          48.35          44.94         -15.75          -7.78         -97.26          85.52         -69.47          98.51          42.05
     1.406              -25.46          28.09           48.4          44.95         -15.74         -7.744         -97.25          85.37         -69.08          98.48          42.09
     1.454              -25.49          28.08          48.46          44.95         -15.71         -7.704         -97.24           85.2         -68.63          98.44          42.14
     1.503              -25.52          28.07          48.53          44.96         -15.69         -7.657         -97.22           85.0         -68.12          98.39          42.19
     1.551              -25.55          28.05          48.61          44.97         -15.66         -7.604         -97.21          84.78         -67.53          98.34          42.26
       1.6              -25.59          28.03           48.7          44.98         -15.63         -7.541         -97.18          84.52         -66.84          98.28          42.33
     1.648              -25.63          28.01          48.81          44.99         -15.59         -7.468         -97.16          84.21         -66.03           98.2          42.42
     1.697              -25.68          27.98          48.94           45.0         -15.55         -7.382         -97.13          83.85         -65.08          98.12          42.53
     1.745              -25.74          27.95          49.09          45.02          -15.5          -7.28          -97.1          83.43         -63.95          98.02          42.65
     1.794              -25.82          27.91          49.27          45.04         -15.43         -7.157         -97.06          82.92          -62.6          97.89           42.8
     1.842              -25.91          27.87          49.49          45.06         -15.36         -7.009         -97.01           82.3         -60.96          97.75          42.98
     1.891              -26.02          27.81          49.76          45.09         -15.26         -6.828         -96.95          81.54         -58.97          97.57          43.19
     1.939              -26.15          27.74          50.09          45.13         -15.15         -6.604         -96.87          80.61          -56.5          97.35          43.46
     1.988              -26.32          27.65           50.5          45.17          -15.0         -6.325         -96.78          79.44         -53.42          97.07           43.8
     2.036              -26.53          27.55          51.02          45.23         -14.82         -5.974         -96.66          77.97         -49.54          96.72          44.22
     2.085               -26.8          27.41          51.68           45.3         -14.59         -5.527         -96.51          76.11         -44.62          96.28          44.76
     2.133              -27.15          27.23          52.53          45.39          -14.3         -4.955         -96.32          73.72         -38.31          95.71          45.45
     2.182              -27.59           27.0          53.62           45.5         -13.92         -4.221         -96.08          70.66         -30.22          94.98          46.33
      2.23              -28.16          26.71          55.01          45.65         -13.44         -3.284         -95.76          66.74         -19.88          94.05          47.46
     2.279              -28.87          26.34          56.75          45.84         -12.83         -2.106         -95.37          61.82         -6.879          92.88          48.88
     2.327              -29.73           25.9          58.88          46.06         -12.09        -0.6698         -94.89          55.83          8.962          91.46           50.6
